<svg width="49" height="38" viewBox="0 0 49 38" fill="none" xmlns="http://www.w3.org/2000/svg">
<path fill-rule="evenodd" clip-rule="evenodd" d="M46.417 37.6668C46.417 37.6668 49.5003 37.6668 49.5003 34.5557C49.5003 31.4446 46.417 22.1113 34.0837 22.1113C21.7503 22.1113 18.667 31.4446 18.667 34.5557C18.667 37.6668 21.7503 37.6668 21.7503 37.6668H46.417ZM21.8182 34.5557H46.3492C46.3636 34.554 46.378 34.5519 46.3923 34.5495L46.417 34.5433C46.4108 33.7219 45.9021 31.3388 44.0737 29.1922C42.3717 27.1793 39.3808 25.2224 34.0837 25.2224C28.7896 25.2224 25.7987 27.1824 24.0937 29.1922C22.2652 31.3388 21.7534 33.7251 21.7503 34.5433C21.7729 34.5477 21.7955 34.5518 21.8182 34.5557ZM34.0837 15.8891C35.7192 15.8891 37.2877 15.2335 38.4441 14.0666C39.6006 12.8997 40.2503 11.3171 40.2503 9.66683C40.2503 8.01659 39.6006 6.43395 38.4441 5.26705C37.2877 4.10016 35.7192 3.44461 34.0837 3.44461C32.4482 3.44461 30.8796 4.10016 29.7232 5.26705C28.5667 6.43395 27.917 8.01659 27.917 9.66683C27.917 11.3171 28.5667 12.8997 29.7232 14.0666C30.8796 15.2335 32.4482 15.8891 34.0837 15.8891ZM43.3337 9.66683C43.3337 10.8925 43.0944 12.1062 42.6295 13.2385C42.1647 14.3709 41.4833 15.3998 40.6244 16.2665C39.7655 17.1332 38.7457 17.8207 37.6235 18.2897C36.5012 18.7587 35.2984 19.0002 34.0837 19.0002C32.8689 19.0002 31.6661 18.7587 30.5438 18.2897C29.4216 17.8207 28.4019 17.1332 27.5429 16.2665C26.684 15.3998 26.0026 14.3709 25.5378 13.2385C25.0729 12.1062 24.8337 10.8925 24.8337 9.66683C24.8337 7.19147 25.8082 4.81751 27.5429 3.06717C29.2776 1.31683 31.6304 0.333496 34.0837 0.333496C36.5369 0.333496 38.8897 1.31683 40.6244 3.06717C42.3591 4.81751 43.3337 7.19147 43.3337 9.66683ZM21.553 22.9824C20.3196 22.5905 19.0482 22.3329 17.7605 22.2139C17.0369 22.1445 16.3105 22.1103 15.5837 22.1113C3.25033 22.1113 0.166992 31.4446 0.166992 34.5557C0.166992 36.6308 1.19374 37.6668 3.25033 37.6668H16.2497C15.7926 36.6956 15.5646 35.6307 15.5837 34.5557C15.5837 31.4135 16.7461 28.2028 18.9445 25.521C19.6937 24.6064 20.5663 23.7508 21.553 22.9824ZM15.337 25.2224C10.194 25.2846 7.27408 27.2135 5.59366 29.1922C3.75291 31.3513 3.25033 33.7437 3.25033 34.5557H12.5003C12.5003 31.3046 13.4962 28.0659 15.337 25.2224ZM4.79199 11.2224C4.79199 8.74703 5.76654 6.37306 7.50125 4.62272C9.23597 2.87238 11.5887 1.88905 14.042 1.88905C16.4952 1.88905 18.848 2.87238 20.5827 4.62272C22.3174 6.37306 23.292 8.74703 23.292 11.2224C23.292 13.6977 22.3174 16.0717 20.5827 17.822C18.848 19.5724 16.4952 20.5557 14.042 20.5557C11.5887 20.5557 9.23597 19.5724 7.50125 17.822C5.76654 16.0717 4.79199 13.6977 4.79199 11.2224ZM14.042 5.00016C12.4065 5.00016 10.838 5.65572 9.6815 6.82261C8.52503 7.9895 7.87533 9.57215 7.87533 11.2224C7.87533 12.8726 8.52503 14.4553 9.6815 15.6222C10.838 16.7891 12.4065 17.4446 14.042 17.4446C15.6775 17.4446 17.246 16.7891 18.4025 15.6222C19.559 14.4553 20.2087 12.8726 20.2087 11.2224C20.2087 9.57215 19.559 7.9895 18.4025 6.82261C17.246 5.65572 15.6775 5.00016 14.042 5.00016Z" fill="#E77C40"/>
</svg>
