<svg width="17" height="16" viewBox="0 0 17 16" fill="none" xmlns="http://www.w3.org/2000/svg">
<path d="M12.2429 10.3439C13.2112 9.02254 13.6449 7.38435 13.4572 5.75701C13.2695 4.12966 12.4743 2.63319 11.2307 1.56699C9.98701 0.500777 8.38665 -0.0565401 6.74973 0.00653307C5.11282 0.0696062 3.56008 0.748418 2.40217 1.90716C1.24425 3.06591 0.566548 4.61913 0.504647 6.25609C0.442745 7.89305 1.00121 9.49302 2.06831 10.7359C3.1354 11.9788 4.63244 12.7729 6.25992 12.9594C7.88739 13.146 9.52528 12.7111 10.8459 11.7419H10.8449C10.8749 11.7819 10.9069 11.8199 10.9429 11.8569L14.7929 15.7069C14.9804 15.8945 15.2348 16 15.5 16.0001C15.7653 16.0002 16.0198 15.8949 16.2074 15.7074C16.395 15.5198 16.5005 15.2655 16.5006 15.0002C16.5007 14.7349 16.3954 14.4805 16.2079 14.2929L12.3579 10.4429C12.3221 10.4067 12.2837 10.3732 12.2429 10.3429V10.3439ZM12.5009 6.49986C12.5009 7.22213 12.3586 7.93732 12.0822 8.60462C11.8058 9.27191 11.4007 9.87822 10.89 10.3889C10.3793 10.8997 9.77295 11.3048 9.10566 11.5812C8.43837 11.8576 7.72317 11.9999 7.0009 11.9999C6.27863 11.9999 5.56343 11.8576 4.89614 11.5812C4.22885 11.3048 3.62253 10.8997 3.11181 10.3889C2.60109 9.87822 2.19596 9.27191 1.91956 8.60462C1.64316 7.93732 1.5009 7.22213 1.5009 6.49986C1.5009 5.04117 2.08036 3.64222 3.11181 2.61077C4.14326 1.57932 5.54221 0.999856 7.0009 0.999856C8.45959 0.999856 9.85853 1.57932 10.89 2.61077C11.9214 3.64222 12.5009 5.04117 12.5009 6.49986Z" fill="white"/>
</svg>
