<svg width="131" height="23" viewBox="0 0 131 23" fill="none" xmlns="http://www.w3.org/2000/svg">
<g clip-path="url(#clip0_2823_6616)">
<path d="M21.0627 8.41929C21.005 8.24948 20.8989 8.10027 20.7574 7.99008C20.616 7.87989 20.4453 7.81355 20.2665 7.79924L15.0374 7.38374L12.7746 2.37472C12.7025 2.21339 12.5853 2.07636 12.4371 1.98018C12.2888 1.88399 12.116 1.83276 11.9393 1.83266C11.7626 1.83257 11.5896 1.88361 11.4413 1.97963C11.293 2.07565 11.1756 2.21255 11.1034 2.3738L8.84055 7.38374L3.6114 7.79924C3.43571 7.81316 3.26775 7.8774 3.12761 7.98428C2.98747 8.09115 2.88109 8.23614 2.82119 8.40189C2.7613 8.56764 2.75043 8.74714 2.78987 8.91891C2.82932 9.09068 2.91742 9.24745 3.04363 9.37046L6.90794 13.1375L5.54126 19.0555C5.49976 19.2347 5.51306 19.4221 5.57943 19.5936C5.64581 19.7651 5.76219 19.9127 5.91347 20.0172C6.06476 20.1217 6.24397 20.1784 6.42784 20.1798C6.61172 20.1812 6.79177 20.1273 6.94463 20.0251L11.939 16.6955L16.9333 20.0251C17.0895 20.1288 17.2738 20.1822 17.4613 20.1781C17.6488 20.174 17.8305 20.1125 17.9821 20.0021C18.1336 19.8916 18.2477 19.7373 18.3089 19.5601C18.3702 19.3828 18.3757 19.1911 18.3248 19.0106L16.6471 13.1403L20.8077 9.39615C21.0801 9.15033 21.1801 8.76692 21.0627 8.41929Z" fill="#F3CD03"/>
<path d="M48.0776 8.41929C48.0199 8.24948 47.9138 8.10027 47.7723 7.99008C47.6308 7.87989 47.4602 7.81355 47.2814 7.79924L42.0523 7.38374L39.7895 2.37472C39.7174 2.21339 39.6002 2.07636 39.452 1.98018C39.3037 1.88399 39.1309 1.83276 38.9542 1.83266C38.7775 1.83257 38.6045 1.88361 38.4562 1.97963C38.3079 2.07565 38.1905 2.21255 38.1183 2.3738L35.8554 7.38374L30.6263 7.79924C30.4506 7.81316 30.2826 7.8774 30.1425 7.98428C30.0024 8.09115 29.896 8.23614 29.8361 8.40189C29.7762 8.56764 29.7653 8.74714 29.8048 8.91891C29.8442 9.09068 29.9323 9.24745 30.0585 9.37046L33.9228 13.1375L32.5562 19.0555C32.5147 19.2347 32.528 19.4221 32.5943 19.5936C32.6607 19.7651 32.7771 19.9127 32.9284 20.0172C33.0797 20.1217 33.2589 20.1784 33.4427 20.1798C33.6266 20.1812 33.8067 20.1273 33.9595 20.0251L38.9539 16.6955L43.9482 20.0251C44.1044 20.1288 44.2887 20.1822 44.4762 20.1781C44.6637 20.174 44.8454 20.1125 44.997 20.0021C45.1485 19.8916 45.2626 19.7373 45.3238 19.5601C45.3851 19.3828 45.3906 19.1911 45.3396 19.0106L43.662 13.1403L47.8226 9.39615C48.095 9.15033 48.195 8.76692 48.0776 8.41929Z" fill="#F3CD03"/>
<path d="M75.0886 8.41929C75.0309 8.24948 74.9248 8.10027 74.7833 7.99008C74.6418 7.87989 74.4712 7.81355 74.2924 7.79924L69.0633 7.38374L66.8004 2.37472C66.7284 2.21339 66.6112 2.07636 66.4629 1.98018C66.3147 1.88399 66.1418 1.83276 65.9651 1.83266C65.7885 1.83257 65.6155 1.88361 65.4672 1.97963C65.3189 2.07565 65.2015 2.21255 65.1292 2.3738L62.8664 7.38374L57.6373 7.79924C57.4616 7.81316 57.2936 7.8774 57.1535 7.98428C57.0133 8.09115 56.907 8.23614 56.8471 8.40189C56.7872 8.56764 56.7763 8.74714 56.8158 8.91891C56.8552 9.09068 56.9433 9.24745 57.0695 9.37046L60.9338 13.1375L59.5671 19.0555C59.5256 19.2347 59.5389 19.4221 59.6053 19.5936C59.6717 19.7651 59.7881 19.9127 59.9394 20.0172C60.0906 20.1217 60.2698 20.1784 60.4537 20.1798C60.6376 20.1812 60.8176 20.1273 60.9705 20.0251L65.9648 16.6955L70.9592 20.0251C71.1154 20.1288 71.2997 20.1822 71.4872 20.1781C71.6747 20.174 71.8564 20.1125 72.0079 20.0021C72.1595 19.8916 72.2736 19.7373 72.3348 19.5601C72.3961 19.3828 72.4016 19.1911 72.3506 19.0106L70.673 13.1403L74.8336 9.39615C75.106 9.15033 75.206 8.76692 75.0886 8.41929Z" fill="#F3CD03"/>
<path d="M102.103 8.41929C102.045 8.24948 101.939 8.10027 101.797 7.99008C101.656 7.87989 101.485 7.81355 101.306 7.79924L96.0773 7.38374L93.8145 2.37472C93.7424 2.21339 93.6252 2.07636 93.477 1.98018C93.3288 1.88399 93.1559 1.83276 92.9792 1.83266C92.8025 1.83257 92.6295 1.88361 92.4812 1.97963C92.3329 2.07565 92.2155 2.21255 92.1433 2.3738L89.8805 7.38374L84.6513 7.79924C84.4756 7.81316 84.3077 7.8774 84.1675 7.98428C84.0274 8.09115 83.921 8.23614 83.8611 8.40189C83.8012 8.56764 83.7903 8.74714 83.8298 8.91891C83.8692 9.09068 83.9573 9.24745 84.0835 9.37046L87.9479 13.1375L86.5812 19.0555C86.5397 19.2347 86.553 19.4221 86.6194 19.5936C86.6857 19.7651 86.8021 19.9127 86.9534 20.0172C87.1047 20.1217 87.2839 20.1784 87.4678 20.1798C87.6516 20.1812 87.8317 20.1273 87.9845 20.0251L92.9789 16.6955L97.9732 20.0251C98.1295 20.1288 98.3137 20.1822 98.5012 20.1781C98.6887 20.174 98.8704 20.1125 99.022 20.0021C99.1735 19.8916 99.2876 19.7373 99.3489 19.5601C99.4101 19.3828 99.4156 19.1911 99.3647 19.0106L97.687 13.1403L101.848 9.39615C102.12 9.15033 102.22 8.76692 102.103 8.41929Z" fill="#F3CD03"/>
<path d="M114.964 13.1376L113.597 19.0556C113.555 19.2348 113.567 19.4226 113.633 19.5945C113.7 19.7664 113.816 19.9143 113.967 20.019C114.119 20.1237 114.298 20.1803 114.482 20.1814C114.667 20.1825 114.847 20.1281 114.999 20.0252L119.994 16.6956L124.988 20.0252C125.144 20.1289 125.329 20.1823 125.516 20.1782C125.704 20.1741 125.885 20.1126 126.037 20.0022C126.188 19.8917 126.302 19.7374 126.364 19.5602C126.425 19.3829 126.431 19.1912 126.38 19.0107L124.702 13.1404L128.863 9.39625C128.996 9.27626 129.091 9.11985 129.136 8.94635C129.182 8.77286 129.175 8.58989 129.117 8.42007C129.06 8.25026 128.954 8.10104 128.812 7.99088C128.671 7.88072 128.5 7.81445 128.321 7.80026L123.092 7.38383L120.829 2.37482C120.757 2.21353 120.64 2.07657 120.492 1.98046C120.343 1.88436 120.17 1.83322 119.994 1.83322C119.817 1.83322 119.644 1.88436 119.496 1.98046C119.348 2.07657 119.23 2.21353 119.158 2.37482L116.895 7.38383L111.666 7.79934C111.491 7.81326 111.323 7.8775 111.182 7.98438C111.042 8.09125 110.936 8.23624 110.876 8.40199C110.816 8.56774 110.805 8.74724 110.845 8.91901C110.884 9.09078 110.972 9.24755 111.098 9.37056L114.964 13.1376ZM117.581 9.16969C117.744 9.15679 117.901 9.10009 118.036 9.00552C118.17 8.91095 118.276 8.782 118.344 8.63219L119.994 4.98068L121.644 8.63219C121.711 8.782 121.818 8.91095 121.952 9.00552C122.086 9.10009 122.243 9.15679 122.407 9.16969L126.05 9.45862L123.05 12.159C122.79 12.3938 122.686 12.7552 122.781 13.0927L123.931 17.1148L120.504 14.8299C120.353 14.729 120.176 14.6751 119.995 14.6751C119.814 14.6751 119.637 14.729 119.487 14.8299L115.906 17.2175L116.869 13.0478C116.904 12.8944 116.899 12.7345 116.855 12.5835C116.811 12.4325 116.728 12.2955 116.616 12.1856L113.829 9.46871L117.581 9.16969Z" fill="#F3CD03"/>
</g>
<defs>
<clipPath id="clip0_2823_6616">
<rect width="130.068" height="22.0136" fill="white" transform="translate(0.931885)"/>
</clipPath>
</defs>
</svg>
