<svg width="15" height="15" viewBox="0 0 15 15" fill="none" xmlns="http://www.w3.org/2000/svg">
<path d="M0.000976562 0.5C0.000976563 0.367392 0.053655 0.240215 0.147423 0.146447C0.241191 0.0526784 0.368368 0 0.500977 0H2.00098C2.11251 3.08115e-05 2.22083 0.0373507 2.30871 0.106025C2.39659 0.174699 2.45899 0.270784 2.48598 0.379L2.89098 2H14.501C14.5744 2.00007 14.6469 2.0163 14.7133 2.04755C14.7798 2.0788 14.8385 2.12429 14.8854 2.1808C14.9322 2.23731 14.9661 2.30345 14.9845 2.37452C15.0029 2.44558 15.0055 2.51984 14.992 2.592L13.492 10.592C13.4705 10.7066 13.4097 10.8101 13.3201 10.8846C13.2304 10.9591 13.1175 10.9999 13.001 11H4.00098C3.88441 10.9999 3.77154 10.9591 3.68189 10.8846C3.59223 10.8101 3.53142 10.7066 3.50998 10.592L2.01098 2.607L1.61098 1H0.500977C0.368368 1 0.241191 0.947322 0.147423 0.853553C0.053655 0.759785 0.000976563 0.632608 0.000976562 0.5ZM3.10298 3L4.41598 10H12.586L13.899 3H3.10298ZM5.00098 11C4.47054 11 3.96184 11.2107 3.58676 11.5858C3.21169 11.9609 3.00098 12.4696 3.00098 13C3.00098 13.5304 3.21169 14.0391 3.58676 14.4142C3.96184 14.7893 4.47054 15 5.00098 15C5.53141 15 6.04012 14.7893 6.41519 14.4142C6.79026 14.0391 7.00098 13.5304 7.00098 13C7.00098 12.4696 6.79026 11.9609 6.41519 11.5858C6.04012 11.2107 5.53141 11 5.00098 11ZM12.001 11C11.4705 11 10.9618 11.2107 10.5868 11.5858C10.2117 11.9609 10.001 12.4696 10.001 13C10.001 13.5304 10.2117 14.0391 10.5868 14.4142C10.9618 14.7893 11.4705 15 12.001 15C12.5314 15 13.0401 14.7893 13.4152 14.4142C13.7903 14.0391 14.001 13.5304 14.001 13C14.001 12.4696 13.7903 11.9609 13.4152 11.5858C13.0401 11.2107 12.5314 11 12.001 11ZM5.00098 12C5.26619 12 5.52055 12.1054 5.70808 12.2929C5.89562 12.4804 6.00098 12.7348 6.00098 13C6.00098 13.2652 5.89562 13.5196 5.70808 13.7071C5.52055 13.8946 5.26619 14 5.00098 14C4.73576 14 4.48141 13.8946 4.29387 13.7071C4.10633 13.5196 4.00098 13.2652 4.00098 13C4.00098 12.7348 4.10633 12.4804 4.29387 12.2929C4.48141 12.1054 4.73576 12 5.00098 12ZM12.001 12C12.2662 12 12.5205 12.1054 12.7081 12.2929C12.8956 12.4804 13.001 12.7348 13.001 13C13.001 13.2652 12.8956 13.5196 12.7081 13.7071C12.5205 13.8946 12.2662 14 12.001 14C11.7358 14 11.4814 13.8946 11.2939 13.7071C11.1063 13.5196 11.001 13.2652 11.001 13C11.001 12.7348 11.1063 12.4804 11.2939 12.2929C11.4814 12.1054 11.7358 12 12.001 12Z" fill="#23A6F0"/>
</svg>
