<svg width="25" height="29" viewBox="0 0 25 29" fill="none" xmlns="http://www.w3.org/2000/svg">
<path d="M0.24 0.0399976H11.56V28H5.56V5.36H0.24V0.0399976ZM18.5728 27.32C17.9061 26.6267 17.5728 25.7867 17.5728 24.8C17.5728 23.8133 17.9061 22.9867 18.5728 22.32C19.2661 21.6267 20.1061 21.28 21.0928 21.28C22.0795 21.28 22.9061 21.6267 23.5728 22.32C24.2661 22.9867 24.6128 23.8133 24.6128 24.8C24.6128 25.7867 24.2661 26.6267 23.5728 27.32C22.9061 27.9867 22.0795 28.32 21.0928 28.32C20.1061 28.32 19.2661 27.9867 18.5728 27.32Z" fill="#E74040"/>
</svg>
