<svg width="33" height="30" viewBox="0 0 33 30" fill="none" xmlns="http://www.w3.org/2000/svg">
<path d="M9.52 15.96C11.1733 14.28 12.3467 12.9467 13.04 11.96C13.76 10.9467 14.12 9.97333 14.12 9.04C14.12 8.10667 13.8133 7.33333 13.2 6.72C12.5867 6.08 11.8 5.76 10.84 5.76C9.08 5.76 7.41333 7.01333 5.84 9.52L0.84 6.56C2.14667 4.53333 3.57333 3 5.12 1.96C6.69333 0.919998 8.68 0.399999 11.08 0.399999C13.5067 0.399999 15.6267 1.17333 17.44 2.72C19.28 4.24 20.2 6.32 20.2 8.96C20.2 10.4 19.8267 11.7867 19.08 13.12C18.36 14.4267 17.0133 16.1067 15.04 18.16L10 23.4H21.04V29H1.32V24.36L9.52 15.96ZM26.6588 28.32C25.9921 27.6267 25.6588 26.7867 25.6588 25.8C25.6588 24.8133 25.9921 23.9867 26.6588 23.32C27.3521 22.6267 28.1921 22.28 29.1788 22.28C30.1654 22.28 30.9921 22.6267 31.6588 23.32C32.3521 23.9867 32.6988 24.8133 32.6988 25.8C32.6988 26.7867 32.3521 27.6267 31.6588 28.32C30.9921 28.9867 30.1654 29.32 29.1788 29.32C28.1921 29.32 27.3521 28.9867 26.6588 28.32Z" fill="#E74040"/>
</svg>
