<svg width="33" height="29" viewBox="0 0 33 29" fill="none" xmlns="http://www.w3.org/2000/svg">
<path d="M2 5.36V0.0399976H19.12V4.36L13.4 10.88C15.64 11.2533 17.3733 12.2 18.6 13.72C19.8267 15.2133 20.44 16.9467 20.44 18.92C20.44 21.8533 19.44 24.16 17.44 25.84C15.4667 27.4933 12.9333 28.32 9.84 28.32C6.74667 28.32 3.61333 27.2267 0.44 25.04L3 20.08C5.64 21.9467 8 22.88 10.08 22.88C11.3333 22.88 12.36 22.5733 13.16 21.96C13.9867 21.3467 14.4 20.4667 14.4 19.32C14.4 18.1467 13.9333 17.2267 13 16.56C12.0667 15.8667 10.7733 15.52 9.12 15.52C8.24 15.52 7 15.7733 5.4 16.28V11.68L10.76 5.36H2ZM26.0728 27.32C25.4061 26.6267 25.0728 25.7867 25.0728 24.8C25.0728 23.8133 25.4061 22.9867 26.0728 22.32C26.7661 21.6267 27.6061 21.28 28.5928 21.28C29.5795 21.28 30.4061 21.6267 31.0728 22.32C31.7661 22.9867 32.1128 23.8133 32.1128 24.8C32.1128 25.7867 31.7661 26.6267 31.0728 27.32C30.4061 27.9867 29.5795 28.32 28.5928 28.32C27.6061 28.32 26.7661 27.9867 26.0728 27.32Z" fill="#E74040"/>
</svg>
