<svg width="32" height="29" viewBox="0 0 32 29" fill="none" xmlns="http://www.w3.org/2000/svg">
<path d="M11.68 15.92V11.04H17.68V15.92H20.84V21.32H17.68V28H11.68V21.32H0.44V16.56L10.4 0.0399976H17.2L7.72 15.92H11.68ZM25.9556 27.32C25.289 26.6267 24.9556 25.7867 24.9556 24.8C24.9556 23.8133 25.289 22.9867 25.9556 22.32C26.649 21.6267 27.489 21.28 28.4756 21.28C29.4623 21.28 30.289 21.6267 30.9556 22.32C31.649 22.9867 31.9956 23.8133 31.9956 24.8C31.9956 25.7867 31.649 26.6267 30.9556 27.32C30.289 27.9867 29.4623 28.32 28.4756 28.32C27.489 28.32 26.649 27.9867 25.9556 27.32Z" fill="#E74040"/>
</svg>
